<svg xmlns="http://www.w3.org/2000/svg" width="24" height="21.333" viewBox="0 0 24 21.333">
  <path id="Icon_awesome-cart-plus" data-name="Icon awesome-cart-plus" d="M21.03,13.333H8.816l.273,1.333H20.272a1,1,0,0,1,.975,1.222l-.23,1.011a2.334,2.334,0,1,1-2.65.434H9.632a2.333,2.333,0,1,1-2.794-.357L3.912,2.667H1a1,1,0,0,1-1-1V1A1,1,0,0,1,1,0H5.272a1,1,0,0,1,.98.8l.382,1.867H23a1,1,0,0,1,.975,1.222l-1.97,8.667A1,1,0,0,1,21.03,13.333ZM17,7H15V5.333a.667.667,0,0,0-.667-.667h-.667A.667.667,0,0,0,13,5.333V7H11a.667.667,0,0,0-.667.667v.667A.667.667,0,0,0,11,9h2v1.667a.667.667,0,0,0,.667.667h.667A.667.667,0,0,0,15,10.667V9h2a.667.667,0,0,0,.667-.667V7.667A.667.667,0,0,0,17,7Z" fill="#107d6a"/>
</svg>
