<svg xmlns="http://www.w3.org/2000/svg" width="26.78" height="23.805" viewBox="0 0 26.78 23.805">
  <path id="Icon_awesome-shopping-cart" data-name="Icon awesome-shopping-cart" d="M2.226,14.009.028,4.339A1.116,1.116,0,0,1,1.116,2.976H19.378L19.8.892A1.116,1.116,0,0,1,20.9,0h4.767A1.116,1.116,0,0,1,26.78,1.116V1.86a1.116,1.116,0,0,1-1.116,1.116H22.415L19.149,18.943a2.6,2.6,0,1,1-3.117.4H6.285a2.6,2.6,0,1,1-2.957-.484l-.257-1.129A1.116,1.116,0,0,1,4.16,16.366h12.48l.3-1.488H3.314A1.116,1.116,0,0,1,2.226,14.009Z" fill="#fff"/>
</svg>
