<svg xmlns="http://www.w3.org/2000/svg" width="30" height="30" viewBox="0 0 30 30">
  <g id="Сгруппировать_556" data-name="Сгруппировать 556" transform="translate(-159 -434)">
    <g id="Сгруппировать_475" data-name="Сгруппировать 475">
      <circle id="Эллипс_32" data-name="Эллипс 32" cx="15" cy="15" r="15" transform="translate(159 434)" fill="#50a237"/>
      <path id="Icon_awesome-home" data-name="Icon awesome-home" d="M8.047,5.589,2.755,9.948v4.7a.459.459,0,0,0,.459.459L6.431,15.1a.459.459,0,0,0,.457-.459V11.9a.459.459,0,0,1,.459-.459H9.184a.459.459,0,0,1,.459.459v2.745a.459.459,0,0,0,.459.461l3.215.009a.459.459,0,0,0,.459-.459V9.945L8.486,5.589A.35.35,0,0,0,8.047,5.589Zm8.359,2.962-2.4-1.978V2.6a.344.344,0,0,0-.344-.344H12.055a.344.344,0,0,0-.344.344V4.682L9.14,2.568a1.378,1.378,0,0,0-1.751,0L.124,8.552a.344.344,0,0,0-.046.485l.732.89a.344.344,0,0,0,.485.047L8.047,4.412a.35.35,0,0,1,.439,0l6.752,5.561a.344.344,0,0,0,.485-.046l.732-.89a.344.344,0,0,0-.049-.486Z" transform="translate(165.734 440.318)" fill="#fff"/>
    </g>
  </g>
</svg>
