<svg id="Компонент_1_1" data-name="Компонент 1 – 1" xmlns="http://www.w3.org/2000/svg" width="202.374" height="36.702" viewBox="0 0 202.374 36.702">
  <g id="Сгруппировать_367" data-name="Сгруппировать 367">
    <path id="Контур_1" data-name="Контур 1" d="M156.218,116.218h-6.545V86.955h.223a6.322,6.322,0,0,1,6.322,6.322Z" transform="translate(-136.582 -86.955)" fill="#fff"/>
    <path id="Контур_2" data-name="Контур 2" d="M110.807,132.365v-.223a6.322,6.322,0,0,1,6.322-6.322h10.042v.223a6.322,6.322,0,0,1-6.322,6.322Z" transform="translate(-110.807 -112.728)" fill="#fff"/>
    <path id="Контур_3" data-name="Контур 3" d="M136.133,110.321,125.108,99.3a3.273,3.273,0,0,0-4.628,0l-2.314,2.314L130.7,114.14Z" transform="translate(-115.687 -94.504)" fill="#fff"/>
    <path id="Контур_4" data-name="Контур 4" d="M183.173,99.658a3.907,3.907,0,1,1,3.908-3.907A3.912,3.912,0,0,1,183.173,99.658Z" transform="translate(-156.207 -90.197)" fill="#e50019"/>
    <path id="Контур_5" data-name="Контур 5" d="M182.233,91.38a3.43,3.43,0,1,1-3.43,3.43,3.434,3.434,0,0,1,3.43-3.43m0-.955a4.385,4.385,0,1,0,4.385,4.385A4.385,4.385,0,0,0,182.233,90.425Z" transform="translate(-155.266 -89.256)" fill="#fff"/>
    <path id="Контур_6" data-name="Контур 6" d="M153.778,110.529a4.629,4.629,0,0,1-4.628-4.523l-13.22,13.219h9.257l8.7-8.7Z" transform="translate(-127.468 -99.589)" fill="#fff"/>
  </g>
  <g id="Сгруппировать_366" data-name="Сгруппировать 366" transform="translate(31.933 6.417)">
    <path id="Контур_8" data-name="Контур 8" d="M210.584,144.92q2.1,2.1,2.1,6.293v10.859h-.019a5.481,5.481,0,0,1-5.481-5.481V152.06a5.143,5.143,0,0,0-.934-3.367,3.286,3.286,0,0,0-2.662-1.11,3.927,3.927,0,0,0-3.067,1.251,5.4,5.4,0,0,0-1.128,3.72v9.519h-5.5V152.06q0-4.477-3.6-4.478a3.879,3.879,0,0,0-3.031,1.251,5.391,5.391,0,0,0-1.129,3.72v9.519h-5.5V143.1h3.072a2.181,2.181,0,0,1,2.181,2.181v.005a6.952,6.952,0,0,1,2.591-1.834,8.732,8.732,0,0,1,3.367-.634,8.158,8.158,0,0,1,3.631.793,6.445,6.445,0,0,1,2.609,2.309,7.776,7.776,0,0,1,2.944-2.291,9.28,9.28,0,0,1,3.9-.811A7.652,7.652,0,0,1,210.584,144.92Z" transform="translate(-180.634 -138.909)" fill="#fff"/>
    <path id="Контур_9" data-name="Контур 9" d="M291.43,143.1v15.8q0,5.216-2.715,7.755t-7.933,2.538a19.845,19.845,0,0,1-5.218-.669,11.379,11.379,0,0,1-4.089-1.94l2.185-3.948a8.979,8.979,0,0,0,3.032,1.569,12.073,12.073,0,0,0,3.667.582,5.952,5.952,0,0,0,4.213-1.286,5.131,5.131,0,0,0,1.357-3.9v-.81a7.7,7.7,0,0,1-5.993,2.362,10.06,10.06,0,0,1-4.777-1.146,8.73,8.73,0,0,1-3.438-3.226,9.7,9.7,0,0,1,0-9.59,8.739,8.739,0,0,1,3.438-3.226,10.068,10.068,0,0,1,4.777-1.146,7.528,7.528,0,0,1,6.275,2.715h0a2.432,2.432,0,0,1,2.432-2.432Zm-6.823,12.252a4.765,4.765,0,0,0,0-6.734,5.063,5.063,0,0,0-3.578-1.287,5.127,5.127,0,0,0-3.6,1.287,4.724,4.724,0,0,0,0,6.734,5.127,5.127,0,0,0,3.6,1.287A5.062,5.062,0,0,0,284.607,155.356Z" transform="translate(-214.213 -138.909)" fill="#fff"/>
    <path id="Контур_10" data-name="Контур 10" d="M323.911,144.92q2.361,2.1,2.362,6.328v10.824h-2.793a2.355,2.355,0,0,1-2.354-2.355v-.007q-1.552,2.645-5.782,2.644a8.974,8.974,0,0,1-3.79-.74,5.651,5.651,0,0,1-2.45-2.045,5.32,5.32,0,0,1-.846-2.962,4.94,4.94,0,0,1,1.992-4.16q1.991-1.515,6.152-1.516h4.371a3.507,3.507,0,0,0-1.093-2.768,4.816,4.816,0,0,0-3.278-.97,9.587,9.587,0,0,0-2.98.476,7.882,7.882,0,0,0-2.485,1.287l-1.975-3.843a11.952,11.952,0,0,1,3.72-1.692,16.689,16.689,0,0,1,4.459-.6Q321.548,142.822,323.911,144.92ZM319.221,158a3.573,3.573,0,0,0,1.551-1.922v-1.94H317q-3.385,0-3.385,2.222a1.977,1.977,0,0,0,.829,1.675,3.726,3.726,0,0,0,2.273.617A4.8,4.8,0,0,0,319.221,158Z" transform="translate(-228.346 -138.909)" fill="#fff"/>
    <path id="Контур_11" data-name="Контур 11" d="M353.647,158.819a5.629,5.629,0,0,1-1.992.9,10.106,10.106,0,0,1-2.486.3,7.385,7.385,0,0,1-5.235-1.728,6.61,6.61,0,0,1-1.852-5.077v-7.791h-2.926V141.19h2.926v-4.618h.888a4.613,4.613,0,0,1,4.612,4.613v.006h4.725v4.231h-4.725v7.72a2.588,2.588,0,0,0,.617,1.851,2.284,2.284,0,0,0,1.746.652,3.537,3.537,0,0,0,2.22-.7Z" transform="translate(-239.898 -136.572)" fill="#fff"/>
    <path id="Контур_12" data-name="Контур 12" d="M374.137,143.527a9.886,9.886,0,0,1,3.86-.705V147.9q-.916-.071-1.234-.071a5.042,5.042,0,0,0-3.7,1.322,5.342,5.342,0,0,0-1.339,3.967v8.955h-5.5V143.1h2.764a2.489,2.489,0,0,1,2.489,2.49v.014A6.123,6.123,0,0,1,374.137,143.527Z" transform="translate(-250.017 -138.909)" fill="#fff"/>
    <path id="Контур_13" data-name="Контур 13" d="M255.4,154.139q.106-1.374.106-1.48a10.244,10.244,0,0,0-1.287-5.2,8.752,8.752,0,0,0-3.543-3.438,11.24,11.24,0,0,0-10.206.053,9.269,9.269,0,0,0-3.632,3.491,9.689,9.689,0,0,0-1.322,5.024,9.564,9.564,0,0,0,1.34,5.042,9.182,9.182,0,0,0,3.808,3.473,12.384,12.384,0,0,0,5.677,1.251q5.146,0,7.827-3.067l-2.926-3.173a6.363,6.363,0,0,1-2.134,1.393,7.268,7.268,0,0,1-2.626.441,6.068,6.068,0,0,1-3.6-1.022,4.464,4.464,0,0,1-1.833-2.786,9.459,9.459,0,0,1-.071-3.208,4.5,4.5,0,0,1,1.551-2.891,4.734,4.734,0,0,1,3.138-1.058,4.638,4.638,0,0,1,3.1,1.076,4.547,4.547,0,0,1,1.552,2.873h-2.749c-1.769,0-3.885,1.434-3.885,3.2l.681,0Z" transform="translate(-201.153 -138.909)" fill="#fff"/>
    <path id="Контур_14" data-name="Контур 14" d="M405.837,154.139q.105-1.374.106-1.48a10.25,10.25,0,0,0-1.287-5.2,8.756,8.756,0,0,0-3.543-3.438,11.241,11.241,0,0,0-10.207.053,9.273,9.273,0,0,0-3.632,3.491,9.7,9.7,0,0,0-1.322,5.024,9.564,9.564,0,0,0,1.34,5.042A9.174,9.174,0,0,0,391.1,161.1a12.381,12.381,0,0,0,5.676,1.251q5.147,0,7.827-3.067l-2.927-3.173a6.352,6.352,0,0,1-2.133,1.393,7.27,7.27,0,0,1-2.626.441,6.072,6.072,0,0,1-3.6-1.022,4.463,4.463,0,0,1-1.833-2.786,9.459,9.459,0,0,1-.071-3.208,4.5,4.5,0,0,1,1.551-2.891,4.734,4.734,0,0,1,3.138-1.058,4.639,4.639,0,0,1,3.1,1.076,4.546,4.546,0,0,1,1.551,2.873H398.01c-1.769,0-3.885,1.434-3.885,3.2l.681,0Z" transform="translate(-257.393 -138.909)" fill="#fff"/>
    <path id="Контур_15" data-name="Контур 15" d="M440.8,154.139q.106-1.374.106-1.48a10.25,10.25,0,0,0-1.287-5.2,8.759,8.759,0,0,0-3.543-3.438,11.242,11.242,0,0,0-10.207.053,9.269,9.269,0,0,0-3.632,3.491,9.694,9.694,0,0,0-1.321,5.024,9.559,9.559,0,0,0,1.34,5.042,9.173,9.173,0,0,0,3.807,3.473,12.384,12.384,0,0,0,5.677,1.251q5.146,0,7.826-3.067l-2.926-3.173a6.362,6.362,0,0,1-2.133,1.393,7.27,7.27,0,0,1-2.626.441,6.072,6.072,0,0,1-3.6-1.022,4.463,4.463,0,0,1-1.833-2.786,9.459,9.459,0,0,1-.071-3.208,4.5,4.5,0,0,1,1.551-2.891,4.734,4.734,0,0,1,3.138-1.058,4.639,4.639,0,0,1,3.1,1.076,4.544,4.544,0,0,1,1.551,2.873h-2.749c-1.77,0-3.885,1.434-3.885,3.2l.681,0Z" transform="translate(-270.464 -138.909)" fill="#fff"/>
  </g>
</svg>
