<svg xmlns="http://www.w3.org/2000/svg" width="21.498" height="21.504" viewBox="0 0 21.498 21.504">
  <path id="Icon_ionic-ios-settings" data-name="Icon ionic-ios-settings" d="M24.223,15.249A2.766,2.766,0,0,1,26,12.668a10.965,10.965,0,0,0-1.327-3.2,2.8,2.8,0,0,1-1.125.241,2.76,2.76,0,0,1-2.525-3.885A10.932,10.932,0,0,0,17.83,4.5a2.764,2.764,0,0,1-5.162,0,10.965,10.965,0,0,0-3.2,1.327A2.76,2.76,0,0,1,6.947,9.712a2.712,2.712,0,0,1-1.125-.241,11.208,11.208,0,0,0-1.321,3.2,2.766,2.766,0,0,1,.006,5.162,10.965,10.965,0,0,0,1.327,3.2,2.761,2.761,0,0,1,3.645,3.645A11.029,11.029,0,0,0,12.674,26a2.759,2.759,0,0,1,5.151,0,10.965,10.965,0,0,0,3.2-1.327,2.764,2.764,0,0,1,3.645-3.645,11.029,11.029,0,0,0,1.327-3.2A2.78,2.78,0,0,1,24.223,15.249ZM15.3,19.722a4.479,4.479,0,1,1,4.479-4.479A4.477,4.477,0,0,1,15.3,19.722Z" transform="translate(-4.5 -4.5)" fill="#fff"/>
</svg>
