<svg xmlns="http://www.w3.org/2000/svg" width="21.382" height="24.315" viewBox="0 0 21.382 24.315">
  <path id="Icon_simple-shopify" data-name="Icon simple-shopify" d="M16.243,24.294l7.311-1.582S20.916,4.868,20.895,4.75a.224.224,0,0,0-.214-.195c-.1,0-1.954-.138-1.954-.138s-1.292-1.291-1.458-1.43a.389.389,0,0,0-.123-.075L16.22,24.294h.023ZM12.569,11.454a4.326,4.326,0,0,0-1.8-.43c-1.466,0-1.524.918-1.524,1.156,0,1.248,3.283,1.738,3.283,4.69,0,2.325-1.459,3.809-3.451,3.809a4.752,4.752,0,0,1-3.587-1.484l.654-2.113a4.6,4.6,0,0,0,2.31,1.08.956.956,0,0,0,.988-.944c0-1.64-2.689-1.716-2.689-4.416-.034-2.266,1.592-4.474,4.89-4.474a4.036,4.036,0,0,1,1.9.366l-.957,2.751-.02.01ZM12.022.841a.68.68,0,0,1,.41.137c-1,.471-2.091,1.661-2.541,4.044-.665.216-1.31.41-1.914.586C8.5,3.8,9.774.851,12.022.851Zm1.251,2.988v.137c-.764.235-1.6.49-2.425.746A4.2,4.2,0,0,1,12.96,1.7,5.961,5.961,0,0,1,13.273,3.829Zm.546-2.263c.7.075,1.156.878,1.448,1.778-.354.115-.745.234-1.173.371V3.459a5.761,5.761,0,0,0-.275-1.9ZM16.85,2.871c-.02,0-.061.021-.079.021s-.293.076-.723.213C15.619,1.856,14.856.7,13.507.7H13.39A1.667,1.667,0,0,0,12.118,0C8.971,0,7.468,3.928,7,5.923c-1.21.37-2.09.644-2.188.683-.684.216-.7.235-.782.881-.076.468-1.854,14.248-1.854,14.248l13.739,2.58L16.85,2.871Z" transform="translate(-2.172)" fill="#107d6a"/>
</svg>
