<svg xmlns="http://www.w3.org/2000/svg" width="26.682" height="30.342" viewBox="0 0 26.682 30.342">
  <path id="Icon_simple-shopify" data-name="Icon simple-shopify" d="M19.731,30.315l9.123-1.973S25.562,6.075,25.535,5.927a.279.279,0,0,0-.267-.243c-.123,0-2.439-.172-2.439-.172S21.218,3.9,21.01,3.728a.485.485,0,0,0-.153-.094L19.7,30.315h.029ZM15.146,14.292a5.4,5.4,0,0,0-2.243-.536c-1.829,0-1.9,1.145-1.9,1.442,0,1.558,4.1,2.168,4.1,5.852,0,2.9-1.82,4.754-4.306,4.754a5.929,5.929,0,0,1-4.475-1.852l.817-2.637a5.736,5.736,0,0,0,2.882,1.348,1.193,1.193,0,0,0,1.233-1.178c0-2.047-3.355-2.142-3.355-5.511-.043-2.828,1.986-5.583,6.1-5.583a5.036,5.036,0,0,1,2.37.456l-1.195,3.432-.025.013ZM14.463,1.049a.849.849,0,0,1,.512.171c-1.244.588-2.609,2.072-3.171,5.047-.829.269-1.635.512-2.388.731.656-2.257,2.241-5.936,5.047-5.936Zm1.561,3.728v.171c-.953.293-2,.612-3.027.93.589-2.247,1.685-3.344,2.636-3.756A7.438,7.438,0,0,1,16.024,4.778Zm.681-2.824c.877.094,1.442,1.1,1.807,2.219-.441.144-.929.292-1.464.463V4.316a7.189,7.189,0,0,0-.343-2.365Zm3.783,1.63c-.025,0-.076.027-.1.027s-.365.095-.9.265c-.535-1.559-1.487-3-3.171-3h-.145A2.08,2.08,0,0,0,14.583,0c-3.927,0-5.8,4.9-6.391,7.391-1.509.461-2.608.8-2.731.852-.853.269-.877.293-.976,1.1-.095.584-2.314,17.779-2.314,17.779l17.144,3.22L20.488,3.583Z" transform="translate(-2.172)" fill="#d8d8d8"/>
</svg>
