<svg xmlns="http://www.w3.org/2000/svg" width="73" height="73" viewBox="0 0 73 73">
  <g id="Сгруппировать_433" data-name="Сгруппировать 433" transform="translate(-924 -890)">
    <g id="Эллипс_24" data-name="Эллипс 24" transform="translate(924 890)" fill="#50a237" stroke="#fff" stroke-width="3">
      <circle cx="36.5" cy="36.5" r="36.5" stroke="none"/>
      <circle cx="36.5" cy="36.5" r="35" fill="none"/>
    </g>
    <g id="Сгруппировать_402" data-name="Сгруппировать 402" transform="translate(944.866 909.987)">
      <path id="Контур_61" data-name="Контур 61" d="M26.855,17.372l4.668,5.718a.976.976,0,0,0,1.444,0l4.668-5.718,2.042.073,8.11,4.434-3.34,5.266-1.109-.569a.983.983,0,0,0-1.357.832V46.866a49.556,49.556,0,0,1-19.473,0V27.408a.984.984,0,0,0-1.371-.832l-1.109.569L16.7,21.879l8.11-4.434Z" transform="translate(-16.703 -17.372)" fill="#fff"/>
    </g>
  </g>
</svg>
