<svg xmlns="http://www.w3.org/2000/svg" width="73" height="73" viewBox="0 0 73 73">
  <g id="Сгруппировать_432" data-name="Сгруппировать 432" transform="translate(-924 -2597)">
    <g id="Эллипс_38" data-name="Эллипс 38" transform="translate(924 2597)" fill="#50a237" stroke="#fff" stroke-width="3">
      <circle cx="36.5" cy="36.5" r="36.5" stroke="none"/>
      <circle cx="36.5" cy="36.5" r="35" fill="none"/>
    </g>
    <g id="Сгруппировать_415" data-name="Сгруппировать 415" transform="translate(936.5 2596.167)">
      <path id="Контур_63" data-name="Контур 63" d="M48.247,38.861a2.225,2.225,0,0,0-1.987-2.035l-8.674-.775-6.348-6.445a4.749,4.749,0,0,0-3.3-1.405H7.346A1.787,1.787,0,0,0,5.7,29.315L2.936,36.778A7.662,7.662,0,0,0,2.5,39.3v4.216a2.172,2.172,0,0,0,2.181,2.181H7.055v-.1a5.351,5.351,0,0,1,3.538-5.088,5.424,5.424,0,0,1,7.172,5.137v.1H33.273v-.1a5.379,5.379,0,1,1,10.758,0v.1h2.326a2.206,2.206,0,0,0,2.181-2.326Zm-35.813-3.1H7.007l1.551-4.071h3.877Zm8.384,0H15.875V31.689h4.943Zm3.441,0V31.689h3.635a1.393,1.393,0,0,1,.872.339l3.683,3.731Z" fill="#fff"/>
      <circle id="Эллипс_39" data-name="Эллипс 39" cx="3.635" cy="3.635" r="3.635" transform="translate(8.751 42.011)" fill="#fff"/>
      <circle id="Эллипс_40" data-name="Эллипс 40" cx="3.635" cy="3.635" r="3.635" transform="translate(35.017 42.011)" fill="#fff"/>
    </g>
  </g>
</svg>
