<svg xmlns="http://www.w3.org/2000/svg" width="73" height="73" viewBox="0 0 73 73">
  <g id="Сгруппировать_431" data-name="Сгруппировать 431" transform="translate(-924 -1664)">
    <g id="Эллипс_38" data-name="Эллипс 38" transform="translate(924 1664)" fill="#50a237" stroke="#fff" stroke-width="3">
      <circle cx="36.5" cy="36.5" r="36.5" stroke="none"/>
      <circle cx="36.5" cy="36.5" r="35" fill="none"/>
    </g>
    <g id="Сгруппировать_405" data-name="Сгруппировать 405" transform="translate(944.5 1682.709)">
      <path id="Контур_62" data-name="Контур 62" d="M26.65,6a4.321,4.321,0,0,0-4.089,5.8H2v1.45a13.047,13.047,0,0,0,3.886,9.28L3.609,27.1l2.6,1.291,2.03-4.046A12.944,12.944,0,0,0,15.05,26.3h2.9a12.951,12.951,0,0,0,6.829-1.958l2.03,4.046,2.6-1.291L27.114,22.53A13.047,13.047,0,0,0,31,13.25V11.8h-.261A4.321,4.321,0,0,0,26.65,6ZM25.2,10.35a1.45,1.45,0,1,1,1.45,1.45A1.451,1.451,0,0,1,25.2,10.35ZM17.95,23.4h-2.9A10.15,10.15,0,0,1,5,14.7H9.25v1.45h2.9V14.7H13.6v4.35h2.9V14.7H28A10.15,10.15,0,0,1,17.95,23.4Z" transform="translate(0 1.35)" fill="#fff"/>
      <rect id="Прямоугольник_70" data-name="Прямоугольник 70" width="3" height="6" transform="translate(11 3.298)" fill="#fff"/>
      <rect id="Прямоугольник_71" data-name="Прямоугольник 71" width="3" height="6" transform="translate(5 4.298)" fill="#fff"/>
      <rect id="Прямоугольник_72" data-name="Прямоугольник 72" width="2" height="6" transform="translate(17 4.298)" fill="#fff"/>
    </g>
  </g>
</svg>
