<svg xmlns="http://www.w3.org/2000/svg" width="19.221" height="17.848" viewBox="0 0 19.221 17.848">
  <path id="Icon_ionic-ios-star-outline" data-name="Icon ionic-ios-star-outline" d="M20.742,9.553H14.431L12.513,3.83a.695.695,0,0,0-1.3,0L9.291,9.553H2.936a.688.688,0,0,0-.686.686.5.5,0,0,0,.013.116.66.66,0,0,0,.287.485L7.738,14.5,5.747,20.284a.688.688,0,0,0,.236.772.664.664,0,0,0,.386.167.841.841,0,0,0,.429-.154l5.063-3.608,5.063,3.608a.8.8,0,0,0,.429.154.616.616,0,0,0,.382-.167.68.68,0,0,0,.236-.772L15.979,14.5l5.144-3.69.124-.107a.72.72,0,0,0,.223-.459A.727.727,0,0,0,20.742,9.553Zm-5.457,3.969a1.2,1.2,0,0,0-.438,1.364l1.291,3.763a.172.172,0,0,1-.262.2l-3.321-2.368a1.2,1.2,0,0,0-.7-.223,1.177,1.177,0,0,0-.7.223L7.84,18.842a.172.172,0,0,1-.262-.2L8.87,14.882a1.209,1.209,0,0,0-.442-1.373l-3.475-2.45a.173.173,0,0,1,.1-.313H9.286a1.2,1.2,0,0,0,1.137-.819l1.27-3.784a.173.173,0,0,1,.326,0l1.27,3.784a1.2,1.2,0,0,0,1.137.819H18.6a.17.17,0,0,1,.1.309Z" transform="translate(-2.25 -3.375)" fill="#107d6a"/>
</svg>
