<svg xmlns="http://www.w3.org/2000/svg" width="19.221" height="17.848" viewBox="0 0 19.221 17.848">
  <path id="Icon_ionic-ios-star" data-name="Icon ionic-ios-star" d="M20.742,9.553H14.431L12.513,3.83a.695.695,0,0,0-1.3,0L9.291,9.553H2.936a.688.688,0,0,0-.686.686.5.5,0,0,0,.013.116.66.66,0,0,0,.287.485L7.738,14.5,5.747,20.284a.688.688,0,0,0,.236.772.664.664,0,0,0,.386.167.841.841,0,0,0,.429-.154l5.063-3.608,5.063,3.608a.8.8,0,0,0,.429.154.616.616,0,0,0,.382-.167.68.68,0,0,0,.236-.772L15.979,14.5l5.144-3.69.124-.107a.72.72,0,0,0,.223-.459A.727.727,0,0,0,20.742,9.553Z" transform="translate(-2.25 -3.375)" fill="#107d6a"/>
</svg>
