<svg xmlns="http://www.w3.org/2000/svg" width="23.555" height="23.555" viewBox="0 0 23.555 23.555">
  <path id="Icon_awesome-telegram" data-name="Icon awesome-telegram" d="M11.778.563A11.778,11.778,0,1,0,23.555,12.34,11.776,11.776,0,0,0,11.778.563Zm5.784,8.069L15.629,17.74c-.142.646-.527.8-1.064.5l-2.944-2.17L10.2,17.436a.743.743,0,0,1-.594.29l.209-3L15.273,9.8c.237-.209-.052-.328-.366-.119L8.164,13.926l-2.906-.907c-.632-.2-.646-.632.133-.936L16.745,7.705c.527-.19.988.128.817.926Z" transform="translate(0 -0.563)" fill="#107d6a"/>
</svg>
