<svg xmlns="http://www.w3.org/2000/svg" width="29.393" height="29.393" viewBox="0 0 29.393 29.393">
  <path id="Icon_awesome-telegram" data-name="Icon awesome-telegram" d="M14.7.563a14.7,14.7,0,1,0,14.7,14.7A14.694,14.694,0,0,0,14.7.563Zm7.218,10.068L19.5,22c-.178.806-.658,1-1.327.622L14.5,19.911l-1.772,1.707a.927.927,0,0,1-.741.361l.261-3.739,6.809-6.151c.3-.261-.065-.409-.456-.148l-8.415,5.3L6.56,16.107c-.788-.249-.806-.788.166-1.167L20.9,9.475c.658-.237,1.233.16,1.019,1.156Z" transform="translate(0 -0.563)" fill="#d8d8d8"/>
</svg>
