<svg xmlns="http://www.w3.org/2000/svg" width="30.341" height="24.643" viewBox="0 0 30.341 24.643">
  <path id="Icon_awesome-twitter" data-name="Icon awesome-twitter" d="M27.223,9.522c.019.27.019.539.019.809,0,8.221-6.257,17.693-17.693,17.693A17.573,17.573,0,0,1,0,25.232a12.865,12.865,0,0,0,1.5.077,12.454,12.454,0,0,0,7.72-2.657A6.229,6.229,0,0,1,3.408,18.34a7.842,7.842,0,0,0,1.174.1,6.577,6.577,0,0,0,1.636-.212,6.219,6.219,0,0,1-4.986-6.1v-.077a6.263,6.263,0,0,0,2.811.789A6.228,6.228,0,0,1,2.118,4.517,17.676,17.676,0,0,0,14.94,11.024,7.02,7.02,0,0,1,14.786,9.6,6.224,6.224,0,0,1,25.548,5.344a12.243,12.243,0,0,0,3.947-1.5A6.2,6.2,0,0,1,26.761,7.27a12.466,12.466,0,0,0,3.581-.963,13.367,13.367,0,0,1-3.119,3.215Z" transform="translate(0 -3.381)" fill="#d8d8d8"/>
</svg>
