<svg xmlns="http://www.w3.org/2000/svg" width="24.315" height="19.749" viewBox="0 0 24.315 19.749">
  <path id="Icon_awesome-twitter" data-name="Icon awesome-twitter" d="M21.816,8.3c.015.216.015.432.015.648A14.082,14.082,0,0,1,7.653,23.129,14.083,14.083,0,0,1,0,20.892a10.31,10.31,0,0,0,1.2.062A9.98,9.98,0,0,0,7.39,18.825a4.992,4.992,0,0,1-4.659-3.456,6.284,6.284,0,0,0,.941.077,5.271,5.271,0,0,0,1.311-.17,4.984,4.984,0,0,1-4-4.891v-.062a5.019,5.019,0,0,0,2.253.633A4.991,4.991,0,0,1,1.7,4.291,14.165,14.165,0,0,0,11.972,9.506a5.626,5.626,0,0,1-.123-1.142,4.988,4.988,0,0,1,8.625-3.41,9.811,9.811,0,0,0,3.163-1.2A4.97,4.97,0,0,1,21.446,6.5a9.99,9.99,0,0,0,2.87-.771,10.712,10.712,0,0,1-2.5,2.577Z" transform="translate(0 -3.381)" fill="#107d6a"/>
</svg>
