<svg xmlns="http://www.w3.org/2000/svg" width="25.936" height="18.236" viewBox="0 0 25.936 18.236">
  <path id="Icon_awesome-youtube" data-name="Icon awesome-youtube" d="M26.444,7.353a3.259,3.259,0,0,0-2.293-2.308C22.129,4.5,14.018,4.5,14.018,4.5s-8.11,0-10.133.545A3.259,3.259,0,0,0,1.592,7.353a34.187,34.187,0,0,0-.542,6.283,34.187,34.187,0,0,0,.542,6.283,3.21,3.21,0,0,0,2.293,2.271c2.023.545,10.133.545,10.133.545s8.11,0,10.133-.545a3.21,3.21,0,0,0,2.293-2.271,34.187,34.187,0,0,0,.542-6.283,34.187,34.187,0,0,0-.542-6.283ZM11.366,17.493V9.78l6.779,3.856-6.779,3.856Z" transform="translate(-1.05 -4.5)" fill="#107d6a"/>
</svg>
