<svg xmlns="http://www.w3.org/2000/svg" width="32.364" height="22.756" viewBox="0 0 32.364 22.756">
  <path id="Icon_awesome-youtube" data-name="Icon awesome-youtube" d="M32.738,8.061a4.067,4.067,0,0,0-2.861-2.88C27.353,4.5,17.232,4.5,17.232,4.5s-10.121,0-12.645.681a4.067,4.067,0,0,0-2.861,2.88A42.66,42.66,0,0,0,1.05,15.9a42.66,42.66,0,0,0,.676,7.841,4.006,4.006,0,0,0,2.861,2.834c2.524.681,12.645.681,12.645.681s10.121,0,12.645-.681a4.006,4.006,0,0,0,2.861-2.834,42.66,42.66,0,0,0,.676-7.841,42.66,42.66,0,0,0-.676-7.841ZM13.922,20.713V11.089L22.381,15.9l-8.459,4.812Z" transform="translate(-1.05 -4.5)" fill="#d8d8d8"/>
</svg>
